<?xml version="1.0" encoding="utf-8"?>
<!-- Generator: Adobe Illustrator 26.0.1, SVG Export Plug-In . SVG Version: 6.00 Build 0)  -->
<svg version="1.1" id="Layer_1" xmlns="http://www.w3.org/2000/svg" xmlns:xlink="http://www.w3.org/1999/xlink" x="0px" y="0px"
	 viewBox="0 0 1080 1080" style="enable-background:new 0 0 1080 1080;" xml:space="preserve">
<style type="text/css">
	.st0{fill:#2596F2;}
	.st1{opacity:0.5;fill:#2596F2;}
</style>
<g>
	<path d="M442.49,475.01c-1.31,2.47-3.42,4.48-6.31,6.03c-2.89,1.55-6.59,2.32-11.11,2.32h-9.93v22.23h-8.98v-54.77h18.92
		c4.2,0,7.76,0.72,10.68,2.17c2.92,1.45,5.1,3.4,6.54,5.87c1.44,2.47,2.17,5.23,2.17,8.28
		C444.46,469.92,443.81,472.54,442.49,475.01z M432.72,473.71c1.68-1.55,2.52-3.74,2.52-6.58c0-5.99-3.39-8.98-10.17-8.98h-9.93
		v17.89h9.93C428.49,476.04,431.04,475.26,432.72,473.71z"/>
	<path d="M467.28,463.31c2.18-1.23,4.77-1.85,7.76-1.85v9.3h-2.29c-3.52,0-6.19,0.89-8,2.68c-1.81,1.79-2.72,4.89-2.72,9.3v22.86
		h-8.98v-43.43h8.98v6.31C463.35,466.26,465.1,464.54,467.28,463.31z"/>
	<path d="M491.04,503.5c-3.31-1.86-5.91-4.49-7.8-7.88c-1.89-3.39-2.84-7.32-2.84-11.78c0-4.41,0.97-8.33,2.92-11.74
		c1.94-3.41,4.6-6.04,7.96-7.88c3.36-1.84,7.12-2.76,11.27-2.76c4.15,0,7.91,0.92,11.27,2.76c3.36,1.84,6.02,4.47,7.96,7.88
		c1.94,3.42,2.92,7.33,2.92,11.74s-1,8.33-3,11.74c-2,3.42-4.72,6.06-8.16,7.92c-3.44,1.87-7.24,2.8-11.39,2.8
		C498.05,506.3,494.35,505.37,491.04,503.5z M508.65,496.84c2.02-1.1,3.66-2.76,4.93-4.97c1.26-2.21,1.89-4.89,1.89-8.04
		s-0.6-5.82-1.81-8c-1.21-2.18-2.81-3.82-4.81-4.93c-2-1.1-4.15-1.65-6.46-1.65c-2.31,0-4.45,0.55-6.42,1.65s-3.53,2.75-4.69,4.93
		c-1.16,2.18-1.73,4.85-1.73,8c0,4.68,1.19,8.29,3.59,10.84c2.39,2.55,5.4,3.82,9.02,3.82C504.46,498.5,506.63,497.95,508.65,496.84
		z"/>
	<path d="M533.32,472.1c1.81-3.36,4.28-5.98,7.41-7.84c3.13-1.86,6.61-2.8,10.44-2.8c2.84,0,5.63,0.62,8.39,1.85
		c2.76,1.24,4.95,2.88,6.58,4.93v-20.96h9.06v58.32h-9.06v-6.54c-1.47,2.1-3.51,3.84-6.11,5.2c-2.6,1.37-5.58,2.05-8.94,2.05
		c-3.78,0-7.24-0.96-10.36-2.88c-3.13-1.92-5.6-4.6-7.41-8.04c-1.81-3.44-2.72-7.34-2.72-11.7
		C530.6,479.32,531.51,475.46,533.32,472.1z M564.29,476.04c-1.23-2.21-2.85-3.89-4.85-5.04c-2-1.16-4.15-1.73-6.46-1.73
		c-2.31,0-4.47,0.56-6.46,1.69c-2,1.13-3.61,2.79-4.85,4.96c-1.24,2.18-1.85,4.77-1.85,7.76s0.62,5.62,1.85,7.88
		c1.23,2.26,2.86,3.98,4.89,5.16c2.02,1.18,4.16,1.77,6.42,1.77c2.31,0,4.46-0.58,6.46-1.73c2-1.15,3.61-2.85,4.85-5.08
		c1.23-2.23,1.85-4.85,1.85-7.84C566.15,480.84,565.53,478.24,564.29,476.04z"/>
	<path d="M587.5,454.76c-1.1-1.1-1.66-2.47-1.66-4.1c0-1.63,0.55-3,1.66-4.1c1.1-1.1,2.47-1.66,4.1-1.66c1.58,0,2.92,0.55,4.02,1.66
		c1.1,1.1,1.66,2.47,1.66,4.1c0,1.63-0.55,2.99-1.66,4.1c-1.1,1.1-2.44,1.65-4.02,1.65C589.97,456.41,588.61,455.86,587.5,454.76z
		 M596.01,462.17v43.43h-8.98v-43.43H596.01z"/>
	<path d="M634.28,463.47c2.6,1.34,4.64,3.01,6.11,5v-6.31h9.06v44.13c0,3.99-0.84,7.55-2.52,10.68c-1.68,3.13-4.11,5.58-7.29,7.37
		c-3.18,1.79-6.97,2.68-11.39,2.68c-5.88,0-10.77-1.38-14.66-4.14c-3.89-2.76-6.1-6.5-6.62-11.23h8.91
		c0.68,2.26,2.14,4.08,4.38,5.48c2.23,1.39,4.9,2.09,8,2.09c3.62,0,6.55-1.1,8.79-3.31c2.23-2.21,3.35-5.41,3.35-9.61v-7.25
		c-1.52,2.05-3.59,3.77-6.19,5.16c-2.6,1.39-5.56,2.09-8.87,2.09c-3.78,0-7.24-0.96-10.36-2.88c-3.13-1.92-5.6-4.6-7.41-8.04
		c-1.81-3.44-2.72-7.34-2.72-11.7c0-4.36,0.91-8.22,2.72-11.59c1.81-3.36,4.28-5.98,7.41-7.84c3.13-1.86,6.58-2.8,10.36-2.8
		C628.69,461.46,631.68,462.13,634.28,463.47z M638.53,476.04c-1.24-2.21-2.85-3.89-4.85-5.04c-2-1.16-4.15-1.73-6.46-1.73
		c-2.31,0-4.47,0.56-6.46,1.69c-2,1.13-3.61,2.79-4.85,4.96c-1.24,2.18-1.85,4.77-1.85,7.76s0.62,5.62,1.85,7.88
		c1.23,2.26,2.86,3.98,4.89,5.16s4.16,1.77,6.42,1.77c2.31,0,4.46-0.58,6.46-1.73c2-1.15,3.61-2.85,4.85-5.08
		c1.23-2.23,1.85-4.85,1.85-7.84C640.38,480.84,639.77,478.24,638.53,476.04z"/>
	<path d="M660.99,472.1c1.81-3.36,4.28-5.98,7.41-7.84c3.13-1.86,6.58-2.8,10.36-2.8c3.42,0,6.4,0.67,8.95,2.01
		c2.55,1.34,4.58,3.01,6.11,5v-6.31h9.06v43.43h-9.06v-6.46c-1.52,2.05-3.6,3.76-6.23,5.12c-2.63,1.37-5.62,2.05-8.99,2.05
		c-3.73,0-7.15-0.96-10.25-2.88c-3.1-1.92-5.56-4.6-7.37-8.04c-1.81-3.44-2.72-7.34-2.72-11.7
		C658.27,479.32,659.18,475.46,660.99,472.1z M691.97,476.04c-1.24-2.21-2.85-3.89-4.85-5.04c-2-1.16-4.15-1.73-6.46-1.73
		c-2.31,0-4.47,0.56-6.46,1.69c-2,1.13-3.61,2.79-4.85,4.96c-1.24,2.18-1.85,4.77-1.85,7.76s0.62,5.62,1.85,7.88
		c1.23,2.26,2.86,3.98,4.89,5.16s4.16,1.77,6.42,1.77c2.31,0,4.46-0.58,6.46-1.73c2-1.15,3.61-2.85,4.85-5.08
		c1.23-2.23,1.85-4.85,1.85-7.84C693.82,480.84,693.2,478.24,691.97,476.04z"/>
	<path d="M723.69,447.27v58.32h-8.98v-58.32H723.69z"/>
	<path d="M789.02,494.4h-22.93l-3.94,11.19h-9.38l19.62-54.85h10.4l19.62,54.85h-9.46L789.02,494.4z M786.5,487.07l-8.91-25.46
		l-8.98,25.46H786.5z"/>
	<path d="M819.92,450.82v54.77h-8.98v-54.77H819.92z"/>
	<path d="M430.6,579.68c2.14,2.68,3.2,5.72,3.2,9.12c0,2.9-0.75,5.52-2.26,7.84c-1.51,2.33-3.68,4.16-6.53,5.5
		c-2.85,1.34-6.16,2.01-9.94,2.01h-22.84v-57.09h21.77c3.89,0,7.23,0.66,10.02,1.97s4.9,3.08,6.33,5.3c1.42,2.22,2.14,4.7,2.14,7.43
		c0,3.29-0.88,6.02-2.63,8.21c-1.75,2.19-4.11,3.81-7.06,4.85C425.86,575.39,428.46,577,430.6,579.68z M401.6,571.06h11.58
		c3.07,0,5.46-0.7,7.19-2.09s2.59-3.41,2.59-6.04c0-2.57-0.86-4.59-2.59-6.04c-1.73-1.45-4.12-2.18-7.19-2.18H401.6V571.06z
		 M421.73,594.22c1.81-1.53,2.71-3.67,2.71-6.41c0-2.79-0.96-5.01-2.88-6.65c-1.92-1.64-4.46-2.46-7.64-2.46H401.6v17.83h12.65
		C417.43,596.52,419.92,595.76,421.73,594.22z"/>
	<path d="M453.35,543.38v60.79h-9.36v-60.79H453.35z"/>
	<path d="M473.72,601.99c-3.45-1.94-6.16-4.68-8.13-8.21c-1.97-3.53-2.96-7.62-2.96-12.28c0-4.6,1.01-8.68,3.04-12.24
		c2.03-3.56,4.79-6.3,8.3-8.21c3.5-1.92,7.42-2.88,11.75-2.88c4.33,0,8.24,0.96,11.75,2.88c3.5,1.92,6.27,4.66,8.3,8.21
		c2.03,3.56,3.04,7.64,3.04,12.24c0,4.6-1.04,8.68-3.12,12.24c-2.08,3.56-4.92,6.31-8.5,8.26c-3.59,1.94-7.54,2.92-11.87,2.92
		C481.03,604.9,477.17,603.93,473.72,601.99z M492.08,595.05c2.11-1.15,3.82-2.88,5.13-5.17c1.31-2.3,1.97-5.09,1.97-8.38
		s-0.63-6.06-1.89-8.34c-1.26-2.27-2.93-3.98-5.01-5.13c-2.08-1.15-4.33-1.73-6.74-1.73c-2.41,0-4.64,0.58-6.69,1.73
		c-2.05,1.15-3.68,2.86-4.89,5.13c-1.21,2.27-1.81,5.05-1.81,8.34c0,4.88,1.25,8.64,3.74,11.29c2.49,2.66,5.63,3.98,9.41,3.98
		C487.72,596.77,489.97,596.2,492.08,595.05z"/>
	<path d="M517.79,569.21c1.89-3.53,4.5-6.26,7.84-8.17c3.34-1.92,7.17-2.88,11.5-2.88c5.48,0,10.01,1.3,13.6,3.9
		c3.59,2.6,6.01,6.31,7.27,11.13h-10.1c-0.82-2.25-2.14-4-3.94-5.26c-1.81-1.26-4.08-1.89-6.82-1.89c-3.83,0-6.89,1.36-9.16,4.07
		c-2.27,2.71-3.41,6.5-3.41,11.38c0,4.88,1.14,8.68,3.41,11.42c2.27,2.74,5.33,4.11,9.16,4.11c5.42,0,9.01-2.38,10.76-7.15H558
		c-1.31,4.6-3.78,8.25-7.39,10.97c-3.61,2.71-8.1,4.07-13.47,4.07c-4.33,0-8.16-0.97-11.5-2.92c-3.34-1.94-5.96-4.68-7.84-8.21
		c-1.89-3.53-2.83-7.62-2.83-12.28C514.96,576.84,515.9,572.74,517.79,569.21z"/>
	<path d="M585.27,581.57l20.87,22.59h-12.65l-16.76-19.47v19.47h-9.36v-60.79h9.36v35.32l16.43-19.8h12.98L585.27,581.57z"/>
	<path d="M612.59,569.21c1.89-3.53,4.5-6.26,7.84-8.17c3.34-1.92,7.17-2.88,11.5-2.88c5.48,0,10.01,1.3,13.59,3.9
		c3.59,2.6,6.01,6.31,7.27,11.13h-10.1c-0.82-2.25-2.14-4-3.94-5.26c-1.81-1.26-4.08-1.89-6.82-1.89c-3.83,0-6.89,1.36-9.16,4.07
		c-2.27,2.71-3.41,6.5-3.41,11.38c0,4.88,1.14,8.68,3.41,11.42c2.27,2.74,5.33,4.11,9.16,4.11c5.42,0,9.01-2.38,10.76-7.15h10.1
		c-1.31,4.6-3.78,8.25-7.39,10.97s-8.11,4.07-13.47,4.07c-4.33,0-8.16-0.97-11.5-2.92c-3.34-1.94-5.96-4.68-7.84-8.21
		c-1.89-3.53-2.83-7.62-2.83-12.28C609.75,576.84,610.7,572.74,612.59,569.21z"/>
	<path d="M694.81,560.38c2.71,1.48,4.85,3.67,6.41,6.57c1.56,2.9,2.34,6.41,2.34,10.51v26.7h-9.28v-25.3c0-4.05-1.01-7.16-3.04-9.32
		c-2.03-2.16-4.79-3.25-8.3-3.25c-3.5,0-6.28,1.08-8.34,3.25c-2.05,2.16-3.08,5.27-3.08,9.32v25.3h-9.36v-60.79h9.36v20.78
		c1.59-1.92,3.6-3.39,6.04-4.44c2.44-1.04,5.11-1.56,8.01-1.56C689.02,558.16,692.1,558.9,694.81,560.38z"/>
	<path d="M715.18,569.25c1.89-3.5,4.46-6.23,7.72-8.17c3.26-1.94,6.86-2.92,10.8-2.92c3.56,0,6.67,0.7,9.32,2.09
		c2.66,1.4,4.78,3.14,6.37,5.22v-6.57h9.45v45.26h-9.45v-6.74c-1.59,2.14-3.75,3.92-6.49,5.34c-2.74,1.42-5.86,2.14-9.37,2.14
		c-3.89,0-7.45-1-10.68-3c-3.23-2-5.79-4.79-7.68-8.38c-1.89-3.59-2.83-7.65-2.83-12.2C712.35,576.78,713.29,572.76,715.18,569.25z
		 M747.47,573.36c-1.29-2.3-2.97-4.05-5.05-5.26c-2.08-1.2-4.33-1.81-6.74-1.81c-2.41,0-4.66,0.59-6.74,1.77
		c-2.08,1.18-3.77,2.9-5.05,5.17c-1.29,2.27-1.93,4.97-1.93,8.09c0,3.12,0.64,5.86,1.93,8.21c1.29,2.36,2.98,4.15,5.09,5.38
		c2.11,1.23,4.34,1.85,6.69,1.85c2.41,0,4.65-0.6,6.74-1.81c2.08-1.2,3.76-2.97,5.05-5.3c1.29-2.33,1.93-5.05,1.93-8.17
		S748.75,575.66,747.47,573.36z"/>
	<path d="M771.66,551.18c-1.15-1.15-1.72-2.57-1.72-4.27c0-1.7,0.58-3.12,1.72-4.27c1.15-1.15,2.57-1.73,4.27-1.73
		c1.64,0,3.04,0.58,4.19,1.73c1.15,1.15,1.73,2.57,1.73,4.27c0,1.7-0.58,3.12-1.73,4.27c-1.15,1.15-2.55,1.72-4.19,1.72
		C774.23,552.91,772.81,552.33,771.66,551.18z M780.53,558.9v45.26h-9.36V558.9H780.53z"/>
	<path d="M825.26,560.38c2.82,1.48,5.02,3.67,6.61,6.57c1.59,2.9,2.38,6.41,2.38,10.51v26.7h-9.28v-25.3c0-4.05-1.01-7.16-3.04-9.32
		c-2.03-2.16-4.79-3.25-8.3-3.25c-3.5,0-6.28,1.08-8.34,3.25c-2.05,2.16-3.08,5.27-3.08,9.32v25.3h-9.36V558.9h9.36v5.17
		c1.53-1.86,3.49-3.31,5.87-4.35c2.38-1.04,4.92-1.56,7.6-1.56C819.25,558.16,822.44,558.9,825.26,560.38z"/>
</g>
<g>
	<path class="st0" d="M304.68,624.11c-1.57-0.73-2.6-1.11-3.54-1.65c-19.43-11.17-38.83-22.39-58.31-33.48
		c-2.19-1.25-2.84-2.7-2.83-5.08c0.06-40.02,0-80.03,0.16-120.05c0.01-1.69,1.36-4.09,2.81-4.94
		c17.48-10.29,36.78-20.41,54.45-30.37c1.35-0.76,0.47-0.66,1.85,0.12c17.54,9.9,36.67,21.76,54.17,31.73
		c2.25,1.28,3.11,1.04,3.09,3.65c-0.11,20.01-0.13,40.02,0.02,60.02c0.02,2.89-1.13,4.27-3.45,5.59
		c-14.92,8.48-29.73,17.17-44.69,25.59c-2.89,1.63-3.82,3.48-3.8,6.73c0.15,19.01,0.08,38.03,0.08,57.04
		C304.68,620.53,304.68,622.05,304.68,624.11z M305.2,446.06c-0.26,1.11-0.47,1.62-0.48,2.14c-0.03,13.18-0.11,26.36,0.09,39.54
		c0.02,1.4,1.45,3.3,2.76,4.09c8.62,5.19,17.37,10.15,26.09,15.15c3.02,1.73,6.09,3.4,9.1,5.07c0.4-0.6,0.67-0.82,0.67-1.04
		c0.06-13.6,0.17-27.21,0-40.81c-0.01-1.27-1.49-2.94-2.73-3.69c-6.66-4.04-13.45-7.87-20.21-11.74
		C315.52,451.91,310.52,449.09,305.2,446.06z M291.78,542.41c0-14.91,0.06-28.8-0.11-42.68c-0.01-1.14-1.42-2.65-2.56-3.33
		c-8.79-5.21-17.67-10.26-26.53-15.35c-2.91-1.67-5.83-3.32-8.86-5.05c-0.37,0.87-0.66,1.23-0.66,1.6
		c-0.05,13.48-0.13,26.96,0.02,40.44c0.01,1.18,1.32,2.74,2.45,3.44c5.19,3.2,10.52,6.17,15.81,9.21
		C277.83,534.42,284.32,538.14,291.78,542.41z M291.26,601.6c0.26-0.91,0.47-1.29,0.47-1.67c0.03-13.31,0.14-26.62-0.08-39.92
		c-0.03-1.48-1.69-3.45-3.12-4.3c-10.58-6.3-21.29-12.39-31.97-18.51c-0.93-0.53-1.96-0.87-3.14-1.39c-0.2,0.89-0.43,1.41-0.43,1.94
		c-0.03,13.17-0.12,26.34,0.09,39.5c0.02,1.39,1.5,3.27,2.82,4.06c8.86,5.32,17.85,10.41,26.81,15.56
		C285.48,598.45,288.3,599.96,291.26,601.6z M304.95,542.28c10.78-6.21,20.97-12.08,31.98-18.42
		c-11.04-6.34-21.24-12.19-31.98-18.36C304.95,518.07,304.95,529.73,304.95,542.28z M259.48,464.26
		c11.04,6.33,21.32,12.22,31.95,18.31c0-12.61,0-24.27,0-36.66C280.67,452.09,270.52,457.92,259.48,464.26z"/>
	<g>
		<path class="st0" d="M313.56,607.62c0.32,0.35,0.47,0.79,0.45,1.22c-0.02,0.43-0.2,0.86-0.55,1.18c-0.69,0.64-1.76,0.59-2.4-0.1
			c-0.32-0.35-0.47-0.79-0.45-1.22c0.02-0.43,0.2-0.86,0.55-1.18C311.85,606.89,312.93,606.93,313.56,607.62z"/>
		<path class="st0" d="M337.38,596.89c0,0.04-0.01,0.09-0.01,0.13c-0.02,0.38,0.06,0.77,0.22,1.12l-5.26,4.84l-5.26,4.84
			c-0.38-0.21-0.81-0.32-1.23-0.31l-5.67-16.53c0.24-0.13,0.47-0.28,0.67-0.47c0.21-0.19,0.38-0.4,0.53-0.63L337.38,596.89z"/>
		<path class="st0" d="M315.39,609.79l8.09,0.74c0.09,0.41,0.29,0.8,0.59,1.12c0.31,0.34,0.7,0.57,1.11,0.69l0.17,6.47l0.07,2.81
			c-0.24,0.09-0.46,0.23-0.67,0.39l-10.12-10.98C314.98,610.68,315.23,610.25,315.39,609.79z"/>
		<path class="st1" d="M318.53,591.37c0.05,0,0.1,0,0.16,0l5.71,16.64c-0.06,0.05-0.12,0.1-0.18,0.15
			c-0.26,0.24-0.46,0.52-0.59,0.83l-8.1-0.75c-0.1-0.62-0.38-1.2-0.82-1.68c-0.42-0.45-0.94-0.77-1.52-0.93l4.69-14.38
			C318.08,591.33,318.3,591.36,318.53,591.37z"/>
		<path class="st0" d="M328.33,610.25c0.05-0.43-0.02-0.88-0.21-1.28l10.51-9.68c0.39,0.22,0.83,0.32,1.26,0.31l6.08,17.07
			c-0.23,0.12-0.44,0.27-0.64,0.45c-0.2,0.18-0.36,0.38-0.5,0.6L328.33,610.25z"/>
		<path class="st0" d="M337.04,586c0.48,0.52,1.11,0.86,1.79,0.99l0.01,0.28l0.18,7.53c-0.31,0.11-0.6,0.28-0.85,0.51
			c-0.06,0.05-0.11,0.11-0.17,0.17l-5.49-2.4l-10.63-4.65c0-0.05,0.01-0.1,0.01-0.16c0.01-0.22,0-0.44-0.04-0.65l14.36-3.32
			C336.31,584.93,336.6,585.52,337.04,586z"/>
		<path class="st1" d="M351.3,596.71c-0.3,0.28-0.54,0.6-0.71,0.96l-8.33-1.02c-0.08-0.43-0.28-0.85-0.6-1.19
			c-0.31-0.34-0.69-0.56-1.1-0.69l-0.18-7.76l0-0.1c0.46-0.14,0.88-0.38,1.24-0.71c0,0,0,0,0,0L351.3,596.71
			C351.3,596.7,351.3,596.7,351.3,596.71z"/>
		<path class="st0" d="M347.67,616.26c-0.07,0-0.13,0-0.2,0l-6.12-17.19c0.05-0.04,0.11-0.09,0.16-0.13
			c0.24-0.22,0.43-0.48,0.56-0.77l8.19,1c0.02,0.78,0.32,1.52,0.85,2.11c0.4,0.44,0.91,0.74,1.46,0.91l-4.3,14.15
			C348.08,616.29,347.88,616.27,347.67,616.26z"/>
		<path class="st1" d="M328.32,622.28c-0.38-0.41-0.86-0.67-1.37-0.78l-0.24-9.19c0.3-0.11,0.59-0.28,0.84-0.51
			c0.05-0.05,0.1-0.1,0.15-0.15l16.63,7.51c-0.01,0.07-0.02,0.13-0.02,0.2c-0.01,0.21,0,0.43,0.04,0.63l-15.4,3.43
			C328.83,623,328.62,622.6,328.32,622.28z"/>
		<path class="st1" d="M320.36,588.21c-0.02,0.43-0.2,0.86-0.55,1.18c-0.69,0.64-1.76,0.59-2.4-0.1c-0.32-0.35-0.47-0.79-0.45-1.22
			s0.2-0.86,0.55-1.18c0.69-0.64,1.76-0.59,2.4,0.1C320.23,587.33,320.37,587.77,320.36,588.21z"/>
		<path class="st0" d="M340.57,585.05c-0.69,0.64-1.76,0.59-2.4-0.1c-0.32-0.35-0.47-0.79-0.45-1.22c0.02-0.43,0.2-0.86,0.55-1.18
			c0.69-0.64,1.76-0.59,2.4,0.1c0.32,0.35,0.47,0.79,0.45,1.22C341.1,584.31,340.91,584.74,340.57,585.05z"/>
		<path class="st1" d="M352.25,600.24c-0.32-0.35-0.47-0.79-0.45-1.22c0.02-0.43,0.2-0.86,0.55-1.18c0.69-0.64,1.76-0.59,2.4,0.1
			c0.32,0.35,0.47,0.79,0.45,1.22c-0.02,0.43-0.2,0.86-0.55,1.18C353.96,600.97,352.88,600.93,352.25,600.24z"/>
		<path class="st0" d="M345.84,619.42c0.02-0.43,0.2-0.86,0.55-1.18c0.69-0.64,1.76-0.59,2.4,0.1c0.32,0.35,0.47,0.79,0.45,1.22
			c-0.02,0.43-0.2,0.86-0.55,1.18c-0.69,0.64-1.76,0.59-2.4-0.1C345.97,620.3,345.82,619.86,345.84,619.42z"/>
		<path class="st1" d="M325.24,622.8c0.69-0.64,1.76-0.59,2.4,0.1c0.32,0.35,0.47,0.79,0.45,1.22c-0.02,0.43-0.2,0.86-0.55,1.18
			c-0.69,0.64-1.76,0.59-2.4-0.1c-0.32-0.35-0.47-0.79-0.45-1.22C324.71,623.55,324.89,623.12,325.24,622.8z"/>
	</g>
</g>
</svg>
